<svg xmlns="http://www.w3.org/2000/svg" width="1688.8000000000002" height="1080" viewBox="0 0 1688.8000000000002 1080" font-family="Helvetica, Arial, sans-serif">
  <text x="359.4" y="70" font-size="11" fill="#000" text-anchor="middle" font-weight="bold">FEED 1 (PREFERRED)</text>
  <line x1="359.4" y1="84" x2="359.4" y2="116" stroke="#000" stroke-width="1" fill="none" stroke-dasharray="5 4"/>
  <line x1="359.4" y1="116" x2="359.4" y2="252" stroke="#000" stroke-width="1" fill="none"/>
  <line x1="359.4" y1="100" x2="331.4" y2="100" stroke="#000" stroke-width="1" fill="none"/>
  <rect x="326.4" y="100" width="10" height="16" stroke="#000" stroke-width="1" fill="#fff"/>
  <line x1="328.4" y1="103" x2="334.4" y2="113" stroke="#000" stroke-width="1" fill="none"/>
  <line x1="331.4" y1="116" x2="331.4" y2="120" stroke="#000" stroke-width="1" fill="none"/>
  <line x1="324.4" y1="120" x2="338.4" y2="120" stroke="#000" stroke-width="1" fill="none"/>
  <line x1="327.4" y1="123" x2="335.4" y2="123" stroke="#000" stroke-width="1" fill="none"/>
  <line x1="329.4" y1="126" x2="333.4" y2="126" stroke="#000" stroke-width="1" fill="none"/>
  <text x="321.4" y="106" font-size="10" fill="#000" text-anchor="end">SA-1</text>
  <circle cx="359.4" cy="120" r="9" stroke="#000" stroke-width="1" fill="#fff"/>
  <text x="359.4" y="124" font-size="11" fill="#000" text-anchor="middle" font-weight="bold">M</text>
  <text x="375.4" y="118" font-size="10" fill="#000" text-anchor="start">M-1 Oncor</text>
  <text x="375.4" y="130" font-size="10" fill="#000" text-anchor="start">rev. meter</text>
  <circle cx="359.4" cy="178" r="2.5" stroke="#000" stroke-width="1" fill="#fff"/>
  <circle cx="359.4" cy="162" r="2.5" stroke="#000" stroke-width="1" fill="#fff"/>
  <line x1="359.4" y1="178" x2="369.4" y2="164" stroke="#000" stroke-width="1" fill="none"/>
  <text x="381.4" y="166" font-size="11" fill="#000" text-anchor="start" font-weight="bold">AS-1</text>
  <text x="381.4" y="178" font-size="9" fill="#000" text-anchor="start">245 kV · 1200 A</text>
  <circle cx="359.4" cy="201" r="2.5" stroke="#000" stroke-width="1" fill="#fff"/>
  <circle cx="359.4" cy="185" r="2.5" stroke="#000" stroke-width="1" fill="#fff"/>
  <line x1="359.4" y1="201" x2="369.4" y2="187" stroke="#000" stroke-width="1" fill="none"/>
  <text x="381.4" y="197" font-size="9" fill="#000" text-anchor="start">138 kV · 1200 A</text>
  <rect x="350.4" y="207" width="18" height="18" stroke="#000" stroke-width="1" fill="#fff"/>
  <text x="359.4" y="219" font-size="9" fill="#000" text-anchor="middle">52</text>
  <text x="381.4" y="212" font-size="11" fill="#000" text-anchor="start" font-weight="bold">CB-1</text>
  <text x="381.4" y="224" font-size="9" fill="#000" text-anchor="start">138 kV · 1200 A</text>
  <circle cx="359.4" cy="247" r="2.5" stroke="#000" stroke-width="1" fill="#fff"/>
  <circle cx="359.4" cy="231" r="2.5" stroke="#000" stroke-width="1" fill="#fff"/>
  <line x1="359.4" y1="231" x2="369.4" y2="245" stroke="#000" stroke-width="1" fill="none"/>
  <text x="381.4" y="243" font-size="9" fill="#000" text-anchor="start">138 kV · 1200 A</text>
  <text x="929.4" y="70" font-size="11" fill="#000" text-anchor="middle" font-weight="bold">FEED 2 (ALTERNATE)</text>
  <line x1="929.4" y1="84" x2="929.4" y2="116" stroke="#000" stroke-width="1" fill="none" stroke-dasharray="5 4"/>
  <line x1="929.4" y1="116" x2="929.4" y2="252" stroke="#000" stroke-width="1" fill="none"/>
  <line x1="929.4" y1="100" x2="901.4" y2="100" stroke="#000" stroke-width="1" fill="none"/>
  <rect x="896.4" y="100" width="10" height="16" stroke="#000" stroke-width="1" fill="#fff"/>
  <line x1="898.4" y1="103" x2="904.4" y2="113" stroke="#000" stroke-width="1" fill="none"/>
  <line x1="901.4" y1="116" x2="901.4" y2="120" stroke="#000" stroke-width="1" fill="none"/>
  <line x1="894.4" y1="120" x2="908.4" y2="120" stroke="#000" stroke-width="1" fill="none"/>
  <line x1="897.4" y1="123" x2="905.4" y2="123" stroke="#000" stroke-width="1" fill="none"/>
  <line x1="899.4" y1="126" x2="903.4" y2="126" stroke="#000" stroke-width="1" fill="none"/>
  <text x="891.4" y="106" font-size="10" fill="#000" text-anchor="end">SA-2</text>
  <circle cx="929.4" cy="120" r="9" stroke="#000" stroke-width="1" fill="#fff"/>
  <text x="929.4" y="124" font-size="11" fill="#000" text-anchor="middle" font-weight="bold">M</text>
  <text x="945.4" y="118" font-size="10" fill="#000" text-anchor="start">M-2 Oncor</text>
  <text x="945.4" y="130" font-size="10" fill="#000" text-anchor="start">rev. meter</text>
  <circle cx="929.4" cy="178" r="2.5" stroke="#000" stroke-width="1" fill="#fff"/>
  <circle cx="929.4" cy="162" r="2.5" stroke="#000" stroke-width="1" fill="#fff"/>
  <line x1="929.4" y1="178" x2="939.4" y2="164" stroke="#000" stroke-width="1" fill="none"/>
  <text x="951.4" y="166" font-size="11" fill="#000" text-anchor="start" font-weight="bold">AS-2</text>
  <text x="951.4" y="178" font-size="9" fill="#000" text-anchor="start">245 kV · 1200 A</text>
  <circle cx="929.4" cy="201" r="2.5" stroke="#000" stroke-width="1" fill="#fff"/>
  <circle cx="929.4" cy="185" r="2.5" stroke="#000" stroke-width="1" fill="#fff"/>
  <line x1="929.4" y1="201" x2="939.4" y2="187" stroke="#000" stroke-width="1" fill="none"/>
  <text x="951.4" y="197" font-size="9" fill="#000" text-anchor="start">138 kV · 1200 A</text>
  <rect x="920.4" y="207" width="18" height="18" stroke="#000" stroke-width="1" fill="#fff"/>
  <text x="929.4" y="219" font-size="9" fill="#000" text-anchor="middle">52</text>
  <text x="951.4" y="212" font-size="11" fill="#000" text-anchor="start" font-weight="bold">CB-2</text>
  <text x="951.4" y="224" font-size="9" fill="#000" text-anchor="start">138 kV · 1200 A</text>
  <circle cx="929.4" cy="247" r="2.5" stroke="#000" stroke-width="1" fill="#fff"/>
  <circle cx="929.4" cy="231" r="2.5" stroke="#000" stroke-width="1" fill="#fff"/>
  <line x1="929.4" y1="231" x2="939.4" y2="245" stroke="#000" stroke-width="1" fill="none"/>
  <text x="951.4" y="243" font-size="9" fill="#000" text-anchor="start">138 kV · 1200 A</text>
  <line x1="209.4" y1="252" x2="509.4" y2="252" stroke="#000" stroke-width="2" fill="none"/>
  <text x="203.4" y="256" font-size="12" fill="#000" text-anchor="end" font-weight="bold">138 kV BUS 1</text>
  <line x1="779.4" y1="252" x2="1079.4" y2="252" stroke="#000" stroke-width="2" fill="none"/>
  <text x="1085.4" y="256" font-size="12" fill="#000" text-anchor="start" font-weight="bold">138 kV BUS 2</text>
  <line x1="509.4" y1="252" x2="606.4" y2="252" stroke="#000" stroke-width="1" fill="none"/>
  <circle cx="608.4" cy="252" r="2.5" stroke="#000" stroke-width="1" fill="#fff"/>
  <circle cx="624.4" cy="252" r="2.5" stroke="#000" stroke-width="1" fill="#fff"/>
  <line x1="608.4" y1="252" x2="622.4" y2="242" stroke="#000" stroke-width="1" fill="none"/>
  <line x1="626.4" y1="252" x2="634.4" y2="252" stroke="#000" stroke-width="1" fill="none"/>
  <rect x="635.4" y="243" width="18" height="18" stroke="#000" stroke-width="1" fill="#fff"/>
  <text x="644.4" y="255" font-size="9" fill="#000" text-anchor="middle">52</text>
  <line x1="654.4" y1="252" x2="662.4" y2="252" stroke="#000" stroke-width="1" fill="none"/>
  <circle cx="664.4" cy="252" r="2.5" stroke="#000" stroke-width="1" fill="#fff"/>
  <circle cx="680.4" cy="252" r="2.5" stroke="#000" stroke-width="1" fill="#fff"/>
  <line x1="664.4" y1="252" x2="678.4" y2="242" stroke="#000" stroke-width="1" fill="none"/>
  <line x1="682.4" y1="252" x2="779.4" y2="252" stroke="#000" stroke-width="1" fill="none"/>
  <text x="644.4" y="236" font-size="10" fill="#000" text-anchor="middle" font-weight="bold">CB-T1</text>
  <text x="644.4" y="278" font-size="10" fill="#000" text-anchor="middle">138 kV tie</text>
  <line x1="233.4" y1="252" x2="233.4" y2="278" stroke="#000" stroke-width="1" fill="none"/>
  <line x1="221.4" y1="280" x2="245.4" y2="280" stroke="#000" stroke-width="1" fill="none"/>
  <line x1="221.4" y1="286" x2="245.4" y2="286" stroke="#000" stroke-width="1" fill="none"/>
  <text x="219.4" y="304" font-size="10" fill="#000" text-anchor="end">CAP-1/2</text>
  <line x1="254.4" y1="252" x2="254.4" y2="278" stroke="#000" stroke-width="1" fill="none"/>
  <rect x="245.4" y="279" width="18" height="18" stroke="#000" stroke-width="1" fill="#fff"/>
  <text x="254.4" y="291" font-size="9" fill="#000" text-anchor="middle">52</text>
  <line x1="254.4" y1="298" x2="254.4" y2="314" stroke="#000" stroke-width="1" fill="none"/>
  <line x1="254.4" y1="314" x2="254.4" y2="317" stroke="#000" stroke-width="1" fill="none"/>
  <path d="M 254.4 317 a 2 2 0 0 1 0 4 a 2 2 0 0 1 0 4 a 2 2 0 0 1 0 4" stroke="#000" stroke-width="1" fill="none"/>
  <line x1="251.4" y1="329" x2="251.4" y2="335" stroke="#000" stroke-width="1" fill="none"/>
  <line x1="257.4" y1="329" x2="257.4" y2="335" stroke="#000" stroke-width="1" fill="none"/>
  <path d="M 254.4 335 a 2 2 0 0 1 0 4 a 2 2 0 0 1 0 4 a 2 2 0 0 1 0 4" stroke="#000" stroke-width="1" fill="none"/>
  <line x1="254.4" y1="347" x2="254.4" y2="350" stroke="#000" stroke-width="1" fill="none"/>
  <line x1="241.4" y1="327" x2="247.4" y2="327" stroke="#000" stroke-width="1" fill="none"/>
  <line x1="247.4" y1="327" x2="244.4" y2="321" stroke="#000" stroke-width="1" fill="none"/>
  <line x1="244.4" y1="321" x2="241.4" y2="327" stroke="#000" stroke-width="1" fill="none"/>
  <line x1="244.4" y1="337" x2="244.4" y2="340" stroke="#000" stroke-width="1" fill="none"/>
  <line x1="244.4" y1="340" x2="241.4" y2="343" stroke="#000" stroke-width="1" fill="none"/>
  <line x1="244.4" y1="340" x2="247.4" y2="343" stroke="#000" stroke-width="1" fill="none"/>
  <line x1="254.4" y1="350" x2="254.4" y2="432" stroke="#000" stroke-width="1" fill="none"/>
  <text x="274.4" y="326" font-size="11" fill="#000" text-anchor="start" font-weight="bold">XFMR-1</text>
  <text x="274.4" y="339" font-size="10" fill="#000" text-anchor="start">150 MVA · 138/13.8 kV</text>
  <text x="274.4" y="351" font-size="10" fill="#000" text-anchor="start">Δ–Y · 628/6276 A</text>
  <line x1="464.4" y1="252" x2="464.4" y2="278" stroke="#000" stroke-width="1" fill="none"/>
  <rect x="455.4" y="279" width="18" height="18" stroke="#000" stroke-width="1" fill="#fff"/>
  <text x="464.4" y="291" font-size="9" fill="#000" text-anchor="middle">52</text>
  <line x1="464.4" y1="298" x2="464.4" y2="314" stroke="#000" stroke-width="1" fill="none"/>
  <line x1="464.4" y1="314" x2="464.4" y2="317" stroke="#000" stroke-width="1" fill="none"/>
  <path d="M 464.4 317 a 2 2 0 0 1 0 4 a 2 2 0 0 1 0 4 a 2 2 0 0 1 0 4" stroke="#000" stroke-width="1" fill="none"/>
  <line x1="461.4" y1="329" x2="461.4" y2="335" stroke="#000" stroke-width="1" fill="none"/>
  <line x1="467.4" y1="329" x2="467.4" y2="335" stroke="#000" stroke-width="1" fill="none"/>
  <path d="M 464.4 335 a 2 2 0 0 1 0 4 a 2 2 0 0 1 0 4 a 2 2 0 0 1 0 4" stroke="#000" stroke-width="1" fill="none"/>
  <line x1="464.4" y1="347" x2="464.4" y2="350" stroke="#000" stroke-width="1" fill="none"/>
  <line x1="451.4" y1="327" x2="457.4" y2="327" stroke="#000" stroke-width="1" fill="none"/>
  <line x1="457.4" y1="327" x2="454.4" y2="321" stroke="#000" stroke-width="1" fill="none"/>
  <line x1="454.4" y1="321" x2="451.4" y2="327" stroke="#000" stroke-width="1" fill="none"/>
  <line x1="454.4" y1="337" x2="454.4" y2="340" stroke="#000" stroke-width="1" fill="none"/>
  <line x1="454.4" y1="340" x2="451.4" y2="343" stroke="#000" stroke-width="1" fill="none"/>
  <line x1="454.4" y1="340" x2="457.4" y2="343" stroke="#000" stroke-width="1" fill="none"/>
  <line x1="464.4" y1="350" x2="464.4" y2="432" stroke="#000" stroke-width="1" fill="none"/>
  <text x="484.4" y="326" font-size="11" fill="#000" text-anchor="start" font-weight="bold">XFMR-2</text>
  <text x="484.4" y="339" font-size="10" fill="#000" text-anchor="start">150 MVA · 138/13.8 kV</text>
  <text x="484.4" y="351" font-size="10" fill="#000" text-anchor="start">Δ–Y · 628/6276 A</text>
  <line x1="824.4" y1="252" x2="824.4" y2="278" stroke="#000" stroke-width="1" fill="none"/>
  <rect x="815.4" y="279" width="18" height="18" stroke="#000" stroke-width="1" fill="#fff"/>
  <text x="824.4" y="291" font-size="9" fill="#000" text-anchor="middle">52</text>
  <line x1="824.4" y1="298" x2="824.4" y2="314" stroke="#000" stroke-width="1" fill="none"/>
  <line x1="824.4" y1="314" x2="824.4" y2="317" stroke="#000" stroke-width="1" fill="none"/>
  <path d="M 824.4 317 a 2 2 0 0 1 0 4 a 2 2 0 0 1 0 4 a 2 2 0 0 1 0 4" stroke="#000" stroke-width="1" fill="none"/>
  <line x1="821.4" y1="329" x2="821.4" y2="335" stroke="#000" stroke-width="1" fill="none"/>
  <line x1="827.4" y1="329" x2="827.4" y2="335" stroke="#000" stroke-width="1" fill="none"/>
  <path d="M 824.4 335 a 2 2 0 0 1 0 4 a 2 2 0 0 1 0 4 a 2 2 0 0 1 0 4" stroke="#000" stroke-width="1" fill="none"/>
  <line x1="824.4" y1="347" x2="824.4" y2="350" stroke="#000" stroke-width="1" fill="none"/>
  <line x1="811.4" y1="327" x2="817.4" y2="327" stroke="#000" stroke-width="1" fill="none"/>
  <line x1="817.4" y1="327" x2="814.4" y2="321" stroke="#000" stroke-width="1" fill="none"/>
  <line x1="814.4" y1="321" x2="811.4" y2="327" stroke="#000" stroke-width="1" fill="none"/>
  <line x1="814.4" y1="337" x2="814.4" y2="340" stroke="#000" stroke-width="1" fill="none"/>
  <line x1="814.4" y1="340" x2="811.4" y2="343" stroke="#000" stroke-width="1" fill="none"/>
  <line x1="814.4" y1="340" x2="817.4" y2="343" stroke="#000" stroke-width="1" fill="none"/>
  <line x1="824.4" y1="350" x2="824.4" y2="432" stroke="#000" stroke-width="1" fill="none"/>
  <text x="844.4" y="326" font-size="11" fill="#000" text-anchor="start" font-weight="bold">XFMR-3</text>
  <text x="844.4" y="339" font-size="10" fill="#000" text-anchor="start">150 MVA · 138/13.8 kV</text>
  <text x="844.4" y="351" font-size="10" fill="#000" text-anchor="start">Δ–Y · 628/6276 A</text>
  <line x1="1034.4" y1="252" x2="1034.4" y2="278" stroke="#000" stroke-width="1" fill="none"/>
  <rect x="1025.4" y="279" width="18" height="18" stroke="#000" stroke-width="1" fill="#fff"/>
  <text x="1034.4" y="291" font-size="9" fill="#000" text-anchor="middle">52</text>
  <line x1="1034.4" y1="298" x2="1034.4" y2="314" stroke="#000" stroke-width="1" fill="none"/>
  <line x1="1034.4" y1="314" x2="1034.4" y2="317" stroke="#000" stroke-width="1" fill="none"/>
  <path d="M 1034.4 317 a 2 2 0 0 1 0 4 a 2 2 0 0 1 0 4 a 2 2 0 0 1 0 4" stroke="#000" stroke-width="1" fill="none"/>
  <line x1="1031.4" y1="329" x2="1031.4" y2="335" stroke="#000" stroke-width="1" fill="none"/>
  <line x1="1037.4" y1="329" x2="1037.4" y2="335" stroke="#000" stroke-width="1" fill="none"/>
  <path d="M 1034.4 335 a 2 2 0 0 1 0 4 a 2 2 0 0 1 0 4 a 2 2 0 0 1 0 4" stroke="#000" stroke-width="1" fill="none"/>
  <line x1="1034.4" y1="347" x2="1034.4" y2="350" stroke="#000" stroke-width="1" fill="none"/>
  <line x1="1021.4" y1="327" x2="1027.4" y2="327" stroke="#000" stroke-width="1" fill="none"/>
  <line x1="1027.4" y1="327" x2="1024.4" y2="321" stroke="#000" stroke-width="1" fill="none"/>
  <line x1="1024.4" y1="321" x2="1021.4" y2="327" stroke="#000" stroke-width="1" fill="none"/>
  <line x1="1024.4" y1="337" x2="1024.4" y2="340" stroke="#000" stroke-width="1" fill="none"/>
  <line x1="1024.4" y1="340" x2="1021.4" y2="343" stroke="#000" stroke-width="1" fill="none"/>
  <line x1="1024.4" y1="340" x2="1027.4" y2="343" stroke="#000" stroke-width="1" fill="none"/>
  <line x1="1034.4" y1="350" x2="1034.4" y2="432" stroke="#000" stroke-width="1" fill="none"/>
  <text x="1054.4" y="326" font-size="11" fill="#000" text-anchor="start" font-weight="bold">XFMR-4</text>
  <text x="1054.4" y="339" font-size="10" fill="#000" text-anchor="start">150 MVA · 138/13.8 kV</text>
  <text x="1054.4" y="351" font-size="10" fill="#000" text-anchor="start">Δ–Y · 628/6276 A</text>
  <line x1="224.4" y1="432" x2="569.4" y2="432" stroke="#000" stroke-width="2" fill="none"/>
  <text x="218.4" y="436" font-size="12" fill="#000" text-anchor="end" font-weight="bold">13.8 kV BUS A · 3000 A</text>
  <line x1="238.4" y1="432" x2="238.4" y2="450" stroke="#000" stroke-width="1" fill="none"/>
  <line x1="231.4" y1="450" x2="245.4" y2="450" stroke="#000" stroke-width="1" fill="none"/>
  <line x1="234.4" y1="453" x2="242.4" y2="453" stroke="#000" stroke-width="1" fill="none"/>
  <line x1="236.4" y1="456" x2="240.4" y2="456" stroke="#000" stroke-width="1" fill="none"/>
  <line x1="719.4" y1="432" x2="1064.4" y2="432" stroke="#000" stroke-width="2" fill="none"/>
  <text x="1070.4" y="436" font-size="12" fill="#000" text-anchor="start" font-weight="bold">13.8 kV BUS B · 3000 A</text>
  <line x1="569.4" y1="432" x2="638.4" y2="432" stroke="#000" stroke-width="1" fill="none" stroke-dasharray="7 4"/>
  <circle cx="644.4" cy="432" r="4" stroke="#000" stroke-width="1" fill="#fff"/>
  <line x1="650.4" y1="432" x2="719.4" y2="432" stroke="#000" stroke-width="1" fill="none" stroke-dasharray="7 4"/>
  <text x="644.4" y="418" font-size="10" fill="#000" text-anchor="middle" font-weight="bold">N.O. TIE</text>
  <line x1="329.4" y1="432" x2="329.4" y2="480" stroke="#000" stroke-width="1" fill="none"/>
  <circle cx="329.4" cy="504" r="2.5" stroke="#000" stroke-width="1" fill="#fff"/>
  <circle cx="329.4" cy="488" r="2.5" stroke="#000" stroke-width="1" fill="#fff"/>
  <line x1="329.4" y1="504" x2="339.4" y2="490" stroke="#000" stroke-width="1" fill="none"/>
  <line x1="329.4" y1="502" x2="329.4" y2="506" stroke="#000" stroke-width="1" fill="none"/>
  <rect x="325.4" y="506" width="8" height="12" stroke="#000" stroke-width="1" fill="#fff"/>
  <line x1="329.4" y1="518" x2="329.4" y2="532" stroke="#000" stroke-width="1" fill="none"/>
  <line x1="329.4" y1="532" x2="329.4" y2="535" stroke="#000" stroke-width="1" fill="none"/>
  <path d="M 329.4 535 a 1.6666666666666667 1.6666666666666667 0 0 1 0 3.3333333333333335 a 1.6666666666666667 1.6666666666666667 0 0 1 0 3.3333333333333335 a 1.6666666666666667 1.6666666666666667 0 0 1 0 3.3333333333333335" stroke="#000" stroke-width="1" fill="none"/>
  <line x1="326.4" y1="545" x2="326.4" y2="551" stroke="#000" stroke-width="1" fill="none"/>
  <line x1="332.4" y1="545" x2="332.4" y2="551" stroke="#000" stroke-width="1" fill="none"/>
  <path d="M 329.4 551 a 1.6666666666666667 1.6666666666666667 0 0 1 0 3.3333333333333335 a 1.6666666666666667 1.6666666666666667 0 0 1 0 3.3333333333333335 a 1.6666666666666667 1.6666666666666667 0 0 1 0 3.3333333333333335" stroke="#000" stroke-width="1" fill="none"/>
  <line x1="329.4" y1="561" x2="329.4" y2="564" stroke="#000" stroke-width="1" fill="none"/>
  <line x1="316.4" y1="543" x2="322.4" y2="543" stroke="#000" stroke-width="1" fill="none"/>
  <line x1="322.4" y1="543" x2="319.4" y2="537" stroke="#000" stroke-width="1" fill="none"/>
  <line x1="319.4" y1="537" x2="316.4" y2="543" stroke="#000" stroke-width="1" fill="none"/>
  <line x1="319.4" y1="553" x2="319.4" y2="556" stroke="#000" stroke-width="1" fill="none"/>
  <line x1="319.4" y1="556" x2="316.4" y2="559" stroke="#000" stroke-width="1" fill="none"/>
  <line x1="319.4" y1="556" x2="322.4" y2="559" stroke="#000" stroke-width="1" fill="none"/>
  <line x1="329.4" y1="564" x2="329.4" y2="636" stroke="#000" stroke-width="1" fill="none"/>
  <text x="349.4" y="486" font-size="11" fill="#000" text-anchor="start" font-weight="bold">CELL-1</text>
  <text x="349.4" y="546" font-size="11" fill="#000" text-anchor="start" font-weight="bold">XFMR-101</text>
  <text x="349.4" y="559" font-size="10" fill="#000" text-anchor="start">2.5 MVA · 13.8/0.48 kV</text>
  <line x1="539.4" y1="432" x2="539.4" y2="480" stroke="#000" stroke-width="1" fill="none"/>
  <circle cx="539.4" cy="504" r="2.5" stroke="#000" stroke-width="1" fill="#fff"/>
  <circle cx="539.4" cy="488" r="2.5" stroke="#000" stroke-width="1" fill="#fff"/>
  <line x1="539.4" y1="504" x2="549.4" y2="490" stroke="#000" stroke-width="1" fill="none"/>
  <line x1="539.4" y1="502" x2="539.4" y2="506" stroke="#000" stroke-width="1" fill="none"/>
  <rect x="535.4" y="506" width="8" height="12" stroke="#000" stroke-width="1" fill="#fff"/>
  <line x1="539.4" y1="518" x2="539.4" y2="532" stroke="#000" stroke-width="1" fill="none"/>
  <line x1="539.4" y1="532" x2="539.4" y2="535" stroke="#000" stroke-width="1" fill="none"/>
  <path d="M 539.4 535 a 1.6666666666666667 1.6666666666666667 0 0 1 0 3.3333333333333335 a 1.6666666666666667 1.6666666666666667 0 0 1 0 3.3333333333333335 a 1.6666666666666667 1.6666666666666667 0 0 1 0 3.3333333333333335" stroke="#000" stroke-width="1" fill="none"/>
  <line x1="536.4" y1="545" x2="536.4" y2="551" stroke="#000" stroke-width="1" fill="none"/>
  <line x1="542.4" y1="545" x2="542.4" y2="551" stroke="#000" stroke-width="1" fill="none"/>
  <path d="M 539.4 551 a 1.6666666666666667 1.6666666666666667 0 0 1 0 3.3333333333333335 a 1.6666666666666667 1.6666666666666667 0 0 1 0 3.3333333333333335 a 1.6666666666666667 1.6666666666666667 0 0 1 0 3.3333333333333335" stroke="#000" stroke-width="1" fill="none"/>
  <line x1="539.4" y1="561" x2="539.4" y2="564" stroke="#000" stroke-width="1" fill="none"/>
  <line x1="526.4" y1="543" x2="532.4" y2="543" stroke="#000" stroke-width="1" fill="none"/>
  <line x1="532.4" y1="543" x2="529.4" y2="537" stroke="#000" stroke-width="1" fill="none"/>
  <line x1="529.4" y1="537" x2="526.4" y2="543" stroke="#000" stroke-width="1" fill="none"/>
  <line x1="529.4" y1="553" x2="529.4" y2="556" stroke="#000" stroke-width="1" fill="none"/>
  <line x1="529.4" y1="556" x2="526.4" y2="559" stroke="#000" stroke-width="1" fill="none"/>
  <line x1="529.4" y1="556" x2="532.4" y2="559" stroke="#000" stroke-width="1" fill="none"/>
  <line x1="539.4" y1="564" x2="539.4" y2="636" stroke="#000" stroke-width="1" fill="none"/>
  <text x="559.4" y="486" font-size="11" fill="#000" text-anchor="start" font-weight="bold">CELL-2</text>
  <text x="559.4" y="546" font-size="11" fill="#000" text-anchor="start" font-weight="bold">XFMR-102</text>
  <text x="559.4" y="559" font-size="10" fill="#000" text-anchor="start">2.5 MVA · 13.8/0.48 kV</text>
  <line x1="749.4" y1="432" x2="749.4" y2="480" stroke="#000" stroke-width="1" fill="none"/>
  <circle cx="749.4" cy="504" r="2.5" stroke="#000" stroke-width="1" fill="#fff"/>
  <circle cx="749.4" cy="488" r="2.5" stroke="#000" stroke-width="1" fill="#fff"/>
  <line x1="749.4" y1="504" x2="759.4" y2="490" stroke="#000" stroke-width="1" fill="none"/>
  <line x1="749.4" y1="502" x2="749.4" y2="506" stroke="#000" stroke-width="1" fill="none"/>
  <rect x="745.4" y="506" width="8" height="12" stroke="#000" stroke-width="1" fill="#fff"/>
  <line x1="749.4" y1="518" x2="749.4" y2="532" stroke="#000" stroke-width="1" fill="none"/>
  <line x1="749.4" y1="532" x2="749.4" y2="535" stroke="#000" stroke-width="1" fill="none"/>
  <path d="M 749.4 535 a 1.6666666666666667 1.6666666666666667 0 0 1 0 3.3333333333333335 a 1.6666666666666667 1.6666666666666667 0 0 1 0 3.3333333333333335 a 1.6666666666666667 1.6666666666666667 0 0 1 0 3.3333333333333335" stroke="#000" stroke-width="1" fill="none"/>
  <line x1="746.4" y1="545" x2="746.4" y2="551" stroke="#000" stroke-width="1" fill="none"/>
  <line x1="752.4" y1="545" x2="752.4" y2="551" stroke="#000" stroke-width="1" fill="none"/>
  <path d="M 749.4 551 a 1.6666666666666667 1.6666666666666667 0 0 1 0 3.3333333333333335 a 1.6666666666666667 1.6666666666666667 0 0 1 0 3.3333333333333335 a 1.6666666666666667 1.6666666666666667 0 0 1 0 3.3333333333333335" stroke="#000" stroke-width="1" fill="none"/>
  <line x1="749.4" y1="561" x2="749.4" y2="564" stroke="#000" stroke-width="1" fill="none"/>
  <line x1="736.4" y1="543" x2="742.4" y2="543" stroke="#000" stroke-width="1" fill="none"/>
  <line x1="742.4" y1="543" x2="739.4" y2="537" stroke="#000" stroke-width="1" fill="none"/>
  <line x1="739.4" y1="537" x2="736.4" y2="543" stroke="#000" stroke-width="1" fill="none"/>
  <line x1="739.4" y1="553" x2="739.4" y2="556" stroke="#000" stroke-width="1" fill="none"/>
  <line x1="739.4" y1="556" x2="736.4" y2="559" stroke="#000" stroke-width="1" fill="none"/>
  <line x1="739.4" y1="556" x2="742.4" y2="559" stroke="#000" stroke-width="1" fill="none"/>
  <line x1="749.4" y1="564" x2="749.4" y2="636" stroke="#000" stroke-width="1" fill="none"/>
  <text x="769.4" y="486" font-size="11" fill="#000" text-anchor="start" font-weight="bold">CELL-3</text>
  <text x="769.4" y="546" font-size="11" fill="#000" text-anchor="start" font-weight="bold">XFMR-103</text>
  <text x="769.4" y="559" font-size="10" fill="#000" text-anchor="start">2.5 MVA · 13.8/0.48 kV</text>
  <line x1="959.4" y1="432" x2="959.4" y2="480" stroke="#000" stroke-width="1" fill="none"/>
  <circle cx="959.4" cy="504" r="2.5" stroke="#000" stroke-width="1" fill="#fff"/>
  <circle cx="959.4" cy="488" r="2.5" stroke="#000" stroke-width="1" fill="#fff"/>
  <line x1="959.4" y1="504" x2="969.4" y2="490" stroke="#000" stroke-width="1" fill="none"/>
  <line x1="959.4" y1="502" x2="959.4" y2="506" stroke="#000" stroke-width="1" fill="none"/>
  <rect x="955.4" y="506" width="8" height="12" stroke="#000" stroke-width="1" fill="#fff"/>
  <line x1="959.4" y1="518" x2="959.4" y2="532" stroke="#000" stroke-width="1" fill="none"/>
  <line x1="959.4" y1="532" x2="959.4" y2="535" stroke="#000" stroke-width="1" fill="none"/>
  <path d="M 959.4 535 a 1.6666666666666667 1.6666666666666667 0 0 1 0 3.3333333333333335 a 1.6666666666666667 1.6666666666666667 0 0 1 0 3.3333333333333335 a 1.6666666666666667 1.6666666666666667 0 0 1 0 3.3333333333333335" stroke="#000" stroke-width="1" fill="none"/>
  <line x1="956.4" y1="545" x2="956.4" y2="551" stroke="#000" stroke-width="1" fill="none"/>
  <line x1="962.4" y1="545" x2="962.4" y2="551" stroke="#000" stroke-width="1" fill="none"/>
  <path d="M 959.4 551 a 1.6666666666666667 1.6666666666666667 0 0 1 0 3.3333333333333335 a 1.6666666666666667 1.6666666666666667 0 0 1 0 3.3333333333333335 a 1.6666666666666667 1.6666666666666667 0 0 1 0 3.3333333333333335" stroke="#000" stroke-width="1" fill="none"/>
  <line x1="959.4" y1="561" x2="959.4" y2="564" stroke="#000" stroke-width="1" fill="none"/>
  <line x1="946.4" y1="543" x2="952.4" y2="543" stroke="#000" stroke-width="1" fill="none"/>
  <line x1="952.4" y1="543" x2="949.4" y2="537" stroke="#000" stroke-width="1" fill="none"/>
  <line x1="949.4" y1="537" x2="946.4" y2="543" stroke="#000" stroke-width="1" fill="none"/>
  <line x1="949.4" y1="553" x2="949.4" y2="556" stroke="#000" stroke-width="1" fill="none"/>
  <line x1="949.4" y1="556" x2="946.4" y2="559" stroke="#000" stroke-width="1" fill="none"/>
  <line x1="949.4" y1="556" x2="952.4" y2="559" stroke="#000" stroke-width="1" fill="none"/>
  <line x1="959.4" y1="564" x2="959.4" y2="636" stroke="#000" stroke-width="1" fill="none"/>
  <text x="979.4" y="486" font-size="11" fill="#000" text-anchor="start" font-weight="bold">CELL-4</text>
  <text x="979.4" y="546" font-size="11" fill="#000" text-anchor="start" font-weight="bold">XFMR-104</text>
  <text x="979.4" y="559" font-size="10" fill="#000" text-anchor="start">2.5 MVA · 13.8/0.48 kV</text>
  <text x="999.4" y="596" font-size="9" fill="#000" text-anchor="start" font-style="italic">… cells repeat to full load</text>
  <text x="335.4" y="452" font-size="9" fill="#000" text-anchor="start" font-style="italic">13.8 kV URD #1</text>
  <text x="755.4" y="452" font-size="9" fill="#000" text-anchor="start" font-style="italic">13.8 kV URD #2</text>
  <line x1="299.4" y1="636" x2="989.4" y2="636" stroke="#000" stroke-width="2" fill="none"/>
  <text x="293.4" y="640" font-size="11" fill="#000" text-anchor="end" font-weight="bold">480 V MDP · 3000 A</text>
  <line x1="329.4" y1="636" x2="329.4" y2="653" stroke="#000" stroke-width="1" fill="none"/>
  <rect x="312.4" y="653" width="34" height="22" stroke="#000" stroke-width="1" fill="#fff"/>
  <text x="351.4" y="662" font-size="10" fill="#000" text-anchor="start" font-weight="bold">DISC-100</text>
  <text x="351.4" y="674" font-size="10" fill="#000" text-anchor="start">3000 A · SE-rated</text>
  <line x1="329.4" y1="675" x2="329.4" y2="692" stroke="#000" stroke-width="1" fill="none"/>
  <rect x="302.4" y="692" width="54" height="30" stroke="#000" stroke-width="1" fill="#fff"/>
  <text x="329.4" y="711" font-size="10" fill="#000" text-anchor="middle">MDP-1</text>
  <line x1="539.4" y1="636" x2="539.4" y2="653" stroke="#000" stroke-width="1" fill="none"/>
  <rect x="522.4" y="653" width="34" height="22" stroke="#000" stroke-width="1" fill="#fff"/>
  <text x="561.4" y="662" font-size="10" fill="#000" text-anchor="start" font-weight="bold">DISC-101</text>
  <text x="561.4" y="674" font-size="10" fill="#000" text-anchor="start">3000 A · SE-rated</text>
  <line x1="539.4" y1="675" x2="539.4" y2="692" stroke="#000" stroke-width="1" fill="none"/>
  <rect x="512.4" y="692" width="54" height="30" stroke="#000" stroke-width="1" fill="#fff"/>
  <text x="539.4" y="711" font-size="10" fill="#000" text-anchor="middle">MDP-2</text>
  <line x1="749.4" y1="636" x2="749.4" y2="653" stroke="#000" stroke-width="1" fill="none"/>
  <rect x="732.4" y="653" width="34" height="22" stroke="#000" stroke-width="1" fill="#fff"/>
  <text x="771.4" y="662" font-size="10" fill="#000" text-anchor="start" font-weight="bold">DISC-102</text>
  <text x="771.4" y="674" font-size="10" fill="#000" text-anchor="start">3000 A · SE-rated</text>
  <line x1="749.4" y1="675" x2="749.4" y2="692" stroke="#000" stroke-width="1" fill="none"/>
  <rect x="722.4" y="692" width="54" height="30" stroke="#000" stroke-width="1" fill="#fff"/>
  <text x="749.4" y="711" font-size="10" fill="#000" text-anchor="middle">MDP-3</text>
  <line x1="959.4" y1="636" x2="959.4" y2="653" stroke="#000" stroke-width="1" fill="none"/>
  <rect x="942.4" y="653" width="34" height="22" stroke="#000" stroke-width="1" fill="#fff"/>
  <text x="981.4" y="662" font-size="10" fill="#000" text-anchor="start" font-weight="bold">DISC-103</text>
  <text x="981.4" y="674" font-size="10" fill="#000" text-anchor="start">3000 A · SE-rated</text>
  <line x1="959.4" y1="675" x2="959.4" y2="692" stroke="#000" stroke-width="1" fill="none"/>
  <rect x="932.4" y="692" width="54" height="30" stroke="#000" stroke-width="1" fill="#fff"/>
  <text x="959.4" y="711" font-size="10" fill="#000" text-anchor="middle">MDP-4</text>
  <line x1="644.4" y1="636" x2="644.4" y2="774" stroke="#000" stroke-width="1" fill="none"/>
  <circle cx="644.4" cy="792" r="18" stroke="#000" stroke-width="1" fill="#fff"/>
  <text x="644.4" y="797" font-size="14" fill="#000" text-anchor="middle" font-weight="bold">G</text>
  <text x="644.4" y="822" font-size="11" fill="#000" text-anchor="middle" font-weight="bold">GEN-1…N</text>
  <text x="644.4" y="835" font-size="10" fill="#000" text-anchor="middle">Standby diesel · N+1 (by others)</text>
  <circle cx="359.4" cy="252" r="2.5" stroke="#000" stroke-width="1" fill="#000"/>
  <circle cx="233.4" cy="252" r="2.5" stroke="#000" stroke-width="1" fill="#000"/>
  <circle cx="929.4" cy="252" r="2.5" stroke="#000" stroke-width="1" fill="#000"/>
  <circle cx="254.4" cy="252" r="2.5" stroke="#000" stroke-width="1" fill="#000"/>
  <circle cx="254.4" cy="432" r="2.5" stroke="#000" stroke-width="1" fill="#000"/>
  <circle cx="464.4" cy="252" r="2.5" stroke="#000" stroke-width="1" fill="#000"/>
  <circle cx="464.4" cy="432" r="2.5" stroke="#000" stroke-width="1" fill="#000"/>
  <circle cx="824.4" cy="252" r="2.5" stroke="#000" stroke-width="1" fill="#000"/>
  <circle cx="824.4" cy="432" r="2.5" stroke="#000" stroke-width="1" fill="#000"/>
  <circle cx="1034.4" cy="252" r="2.5" stroke="#000" stroke-width="1" fill="#000"/>
  <circle cx="1034.4" cy="432" r="2.5" stroke="#000" stroke-width="1" fill="#000"/>
  <circle cx="329.4" cy="432" r="2.5" stroke="#000" stroke-width="1" fill="#000"/>
  <circle cx="329.4" cy="636" r="2.5" stroke="#000" stroke-width="1" fill="#000"/>
  <circle cx="539.4" cy="432" r="2.5" stroke="#000" stroke-width="1" fill="#000"/>
  <circle cx="539.4" cy="636" r="2.5" stroke="#000" stroke-width="1" fill="#000"/>
  <circle cx="749.4" cy="432" r="2.5" stroke="#000" stroke-width="1" fill="#000"/>
  <circle cx="749.4" cy="636" r="2.5" stroke="#000" stroke-width="1" fill="#000"/>
  <circle cx="959.4" cy="432" r="2.5" stroke="#000" stroke-width="1" fill="#000"/>
  <circle cx="959.4" cy="636" r="2.5" stroke="#000" stroke-width="1" fill="#000"/>
  <circle cx="644.4" cy="636" r="2.5" stroke="#000" stroke-width="1" fill="#000"/>
  <line x1="52" y1="150" x2="1258.8000000000002" y2="150" stroke="#000" stroke-width="1.6" fill="none" stroke-dasharray="7 3"/>
  <text x="644.4" y="144" font-size="9" fill="#000" text-anchor="middle" font-style="italic">POINT OF DELIVERY (POI) — Oncor above / customer below</text>
  <text x="60" y="44" font-size="9" fill="#555" text-anchor="start" font-style="italic">BY ONCOR — utility side (above POI)</text>
  <rect x="48" y="158" width="1210.8000000000002" height="300" stroke="#000" stroke-width="1.2" fill="none" stroke-dasharray="10 6"/>
  <text x="56" y="172" font-size="10" fill="#000" text-anchor="start" font-weight="bold">MAIN SUBSTATION &amp; E-HOUSE</text>
  <rect x="48" y="466" width="1210.8000000000002" height="384" stroke="#000" stroke-width="1.2" fill="none" stroke-dasharray="10 6"/>
  <text x="56" y="480" font-size="10" fill="#000" text-anchor="start" font-weight="bold">R&amp;B POWER INC.</text>
  <rect x="1298.8000000000002" y="40" width="360" height="150" stroke="#000" stroke-width="1.5" fill="none"/>
  <text x="1308.8000000000002" y="60" font-size="12" fill="#000" text-anchor="start" font-weight="bold">GENERAL NOTES</text>
  <line x1="1298.8000000000002" y1="68" x2="1658.8000000000002" y2="68" stroke="#000" stroke-width="1" fill="none"/>
  <text x="1308.8000000000002" y="84" font-size="10" fill="#000" text-anchor="start">1. Service: dual (two-way) 138 kV feed; Oncor</text>
  <text x="1308.8000000000002" y="98" font-size="10" fill="#000" text-anchor="start">   revenue metering (xfmr-rated) &amp; arresters above POI.</text>
  <text x="1308.8000000000002" y="112" font-size="10" fill="#000" text-anchor="start">2. Ultimate 350 MW (~361 MVA @ 0.97 pf), data center.</text>
  <text x="1308.8000000000002" y="126" font-size="10" fill="#000" text-anchor="start">3. 4 × 150 MVA (N-1 firm 450 MVA);</text>
  <text x="1308.8000000000002" y="140" font-size="10" fill="#000" text-anchor="start">   dashed transformers = future phase.</text>
  <text x="1308.8000000000002" y="154" font-size="10" fill="#000" text-anchor="start">4. 138 kV main-tie-main + 13.8 kV N.O. tie; no parallel</text>
  <text x="1308.8000000000002" y="168" font-size="10" fill="#000" text-anchor="start">   of feeds without Oncor approval.</text>
  <text x="1308.8000000000002" y="182" font-size="10" fill="#000" text-anchor="start">5. %Z, tap range, kA, CT/PT &amp; relays — by final design.</text>
  <rect x="1298.8000000000002" y="210" width="360" height="322" stroke="#000" stroke-width="1.5" fill="none"/>
  <text x="1308.8000000000002" y="230" font-size="12" fill="#000" text-anchor="start" font-weight="bold">LEGEND</text>
  <line x1="1298.8000000000002" y1="238" x2="1658.8000000000002" y2="238" stroke="#000" stroke-width="1" fill="none"/>
  <circle cx="1324.8000000000002" cy="268" r="2.5" stroke="#000" stroke-width="1" fill="#fff"/>
  <circle cx="1324.8000000000002" cy="252" r="2.5" stroke="#000" stroke-width="1" fill="#fff"/>
  <line x1="1324.8000000000002" y1="268" x2="1334.8000000000002" y2="254" stroke="#000" stroke-width="1" fill="none"/>
  <text x="1354.8000000000002" y="264" font-size="10" fill="#000" text-anchor="start">Disconnect switch</text>
  <rect x="1315.8000000000002" y="283" width="18" height="18" stroke="#000" stroke-width="1" fill="#fff"/>
  <text x="1324.8000000000002" y="295" font-size="9" fill="#000" text-anchor="middle">52</text>
  <text x="1354.8000000000002" y="296" font-size="10" fill="#000" text-anchor="start">Circuit breaker</text>
  <line x1="1324.8000000000002" y1="313" x2="1324.8000000000002" y2="316" stroke="#000" stroke-width="1" fill="none"/>
  <path d="M 1324.8000000000002 316 a 0.8333333333333334 0.8333333333333334 0 0 1 0 1.6666666666666667 a 0.8333333333333334 0.8333333333333334 0 0 1 0 1.6666666666666667 a 0.8333333333333334 0.8333333333333334 0 0 1 0 1.6666666666666667" stroke="#000" stroke-width="1" fill="none"/>
  <line x1="1321.8000000000002" y1="321" x2="1321.8000000000002" y2="327" stroke="#000" stroke-width="1" fill="none"/>
  <line x1="1327.8000000000002" y1="321" x2="1327.8000000000002" y2="327" stroke="#000" stroke-width="1" fill="none"/>
  <path d="M 1324.8000000000002 327 a 0.8333333333333334 0.8333333333333334 0 0 1 0 1.6666666666666667 a 0.8333333333333334 0.8333333333333334 0 0 1 0 1.6666666666666667 a 0.8333333333333334 0.8333333333333334 0 0 1 0 1.6666666666666667" stroke="#000" stroke-width="1" fill="none"/>
  <line x1="1324.8000000000002" y1="332" x2="1324.8000000000002" y2="335" stroke="#000" stroke-width="1" fill="none"/>
  <line x1="1311.8000000000002" y1="319" x2="1317.8000000000002" y2="319" stroke="#000" stroke-width="1" fill="none"/>
  <line x1="1317.8000000000002" y1="319" x2="1314.8000000000002" y2="313" stroke="#000" stroke-width="1" fill="none"/>
  <line x1="1314.8000000000002" y1="313" x2="1311.8000000000002" y2="319" stroke="#000" stroke-width="1" fill="none"/>
  <line x1="1314.8000000000002" y1="329" x2="1314.8000000000002" y2="332" stroke="#000" stroke-width="1" fill="none"/>
  <line x1="1314.8000000000002" y1="332" x2="1311.8000000000002" y2="335" stroke="#000" stroke-width="1" fill="none"/>
  <line x1="1314.8000000000002" y1="332" x2="1317.8000000000002" y2="335" stroke="#000" stroke-width="1" fill="none"/>
  <text x="1354.8000000000002" y="328" font-size="10" fill="#000" text-anchor="start">Power transformer (Δ–Y)</text>
  <rect x="1320.8000000000002" y="350" width="8" height="12" stroke="#000" stroke-width="1" fill="#fff"/>
  <text x="1354.8000000000002" y="360" font-size="10" fill="#000" text-anchor="start">Fuse</text>
  <line x1="1312.8000000000002" y1="385" x2="1336.8000000000002" y2="385" stroke="#000" stroke-width="1" fill="none"/>
  <line x1="1312.8000000000002" y1="391" x2="1336.8000000000002" y2="391" stroke="#000" stroke-width="1" fill="none"/>
  <text x="1354.8000000000002" y="392" font-size="10" fill="#000" text-anchor="start">Capacitor bank</text>
  <circle cx="1324.8000000000002" cy="420" r="9" stroke="#000" stroke-width="1" fill="#fff"/>
  <text x="1324.8000000000002" y="425" font-size="14" fill="#000" text-anchor="middle" font-weight="bold">G</text>
  <text x="1354.8000000000002" y="424" font-size="10" fill="#000" text-anchor="start">Generator</text>
  <rect x="1319.8000000000002" y="444" width="10" height="16" stroke="#000" stroke-width="1" fill="#fff"/>
  <line x1="1321.8000000000002" y1="447" x2="1327.8000000000002" y2="457" stroke="#000" stroke-width="1" fill="none"/>
  <line x1="1317.8000000000002" y1="463" x2="1331.8000000000002" y2="463" stroke="#000" stroke-width="1" fill="none"/>
  <line x1="1320.8000000000002" y1="466" x2="1328.8000000000002" y2="466" stroke="#000" stroke-width="1" fill="none"/>
  <line x1="1322.8000000000002" y1="469" x2="1326.8000000000002" y2="469" stroke="#000" stroke-width="1" fill="none"/>
  <text x="1354.8000000000002" y="456" font-size="10" fill="#000" text-anchor="start">Surge arrester</text>
  <circle cx="1324.8000000000002" cy="484" r="9" stroke="#000" stroke-width="1" fill="#fff"/>
  <text x="1324.8000000000002" y="488" font-size="11" fill="#000" text-anchor="middle" font-weight="bold">M</text>
  <text x="1354.8000000000002" y="488" font-size="10" fill="#000" text-anchor="start">Revenue meter</text>
  <circle cx="1324.8000000000002" cy="516" r="2.5" stroke="#000" stroke-width="1" fill="#000"/>
  <text x="1354.8000000000002" y="520" font-size="10" fill="#000" text-anchor="start">Connection (junction)</text>
  <text x="60" y="1034" font-size="12" fill="#000" text-anchor="start" font-weight="bold">TOTAL CONNECTED LOAD: 350 MW (~361 MVA @ 0.97 pf) · data center</text>
  <text x="60" y="1052" font-size="10" fill="#000" text-anchor="start">Service: dual 138 kV feed · 1192.5 kcmil ACSR · 4 × 150 MVA (N-1 firm 450) · per-feed 1510 A</text>
  <rect x="1178.8000000000002" y="916" width="480" height="28" stroke="#000" stroke-width="1" fill="none"/>
  <text x="1186.8000000000002" y="934" font-size="10" fill="#000" text-anchor="start">REV 1  ·  Issued for Interconnection Study  ·  RBP  ·  2026-06-08</text>
  <rect x="1178.8000000000002" y="946" width="480" height="104" stroke="#000" stroke-width="1.5" fill="none"/>
  <line x1="1178.8000000000002" y1="972" x2="1658.8000000000002" y2="972" stroke="#000" stroke-width="1" fill="none"/>
  <line x1="1458.8000000000002" y1="972" x2="1458.8000000000002" y2="1050" stroke="#000" stroke-width="1" fill="none"/>
  <text x="1418.8000000000002" y="964" font-size="13" fill="#000" text-anchor="middle" font-weight="bold">ELECTRICAL ONE-LINE DIAGRAM</text>
  <text x="1188.8000000000002" y="992" font-size="11" fill="#000" text-anchor="start" font-weight="bold">NTSM Combine Pit — Dallas Co., TX</text>
  <text x="1188.8000000000002" y="1010" font-size="10" fill="#000" text-anchor="start">Combine, TX</text>
  <text x="1188.8000000000002" y="1028" font-size="9" fill="#000" text-anchor="start"> · Sub 311579</text>
  <text x="1188.8000000000002" y="1042" font-size="9" fill="#000" text-anchor="start">Customer: NTNSM, LLC</text>
  <text x="1468.8000000000002" y="992" font-size="11" fill="#000" text-anchor="start" font-weight="bold">R&amp;B Power Inc.</text>
  <text x="1468.8000000000002" y="1010" font-size="10" fill="#000" text-anchor="start" font-weight="bold">Dwg RB-CB-E-001 · Rev 1</text>
  <text x="1468.8000000000002" y="1028" font-size="9" fill="#000" text-anchor="start">Scale: AS SHOWN · Sheet 1 of 1</text>
  <text x="1468.8000000000002" y="1042" font-size="9" fill="#000" text-anchor="start" font-style="italic">Study-stage · not for construction</text>
</svg>