<svg xmlns="http://www.w3.org/2000/svg" width="1515.8" height="1080" viewBox="0 0 1515.8 1080" font-family="Helvetica, Arial, sans-serif">
  <text x="555" y="70" font-size="11" fill="#000" text-anchor="middle" font-weight="bold">138 kV UTILITY FEED</text>
  <line x1="555" y1="84" x2="555" y2="116" stroke="#000" stroke-width="1" fill="none" stroke-dasharray="5 4"/>
  <line x1="555" y1="116" x2="555" y2="252" stroke="#000" stroke-width="1" fill="none"/>
  <line x1="555" y1="100" x2="527" y2="100" stroke="#000" stroke-width="1" fill="none"/>
  <rect x="522" y="100" width="10" height="16" stroke="#000" stroke-width="1" fill="#fff"/>
  <line x1="524" y1="103" x2="530" y2="113" stroke="#000" stroke-width="1" fill="none"/>
  <line x1="527" y1="116" x2="527" y2="120" stroke="#000" stroke-width="1" fill="none"/>
  <line x1="520" y1="120" x2="534" y2="120" stroke="#000" stroke-width="1" fill="none"/>
  <line x1="523" y1="123" x2="531" y2="123" stroke="#000" stroke-width="1" fill="none"/>
  <line x1="525" y1="126" x2="529" y2="126" stroke="#000" stroke-width="1" fill="none"/>
  <text x="517" y="106" font-size="10" fill="#000" text-anchor="end">SA-1</text>
  <circle cx="555" cy="120" r="9" stroke="#000" stroke-width="1" fill="#fff"/>
  <text x="555" y="124" font-size="11" fill="#000" text-anchor="middle" font-weight="bold">M</text>
  <text x="571" y="118" font-size="10" fill="#000" text-anchor="start">M-1 Oncor</text>
  <text x="571" y="130" font-size="10" fill="#000" text-anchor="start">rev. meter</text>
  <circle cx="555" cy="178" r="2.5" stroke="#000" stroke-width="1" fill="#fff"/>
  <circle cx="555" cy="162" r="2.5" stroke="#000" stroke-width="1" fill="#fff"/>
  <line x1="555" y1="178" x2="565" y2="164" stroke="#000" stroke-width="1" fill="none"/>
  <text x="577" y="166" font-size="11" fill="#000" text-anchor="start" font-weight="bold">AS-1</text>
  <text x="577" y="178" font-size="9" fill="#000" text-anchor="start">245 kV · 1200 A</text>
  <circle cx="555" cy="201" r="2.5" stroke="#000" stroke-width="1" fill="#fff"/>
  <circle cx="555" cy="185" r="2.5" stroke="#000" stroke-width="1" fill="#fff"/>
  <line x1="555" y1="201" x2="565" y2="187" stroke="#000" stroke-width="1" fill="none"/>
  <text x="577" y="197" font-size="9" fill="#000" text-anchor="start">138 kV · 1200 A</text>
  <rect x="546" y="207" width="18" height="18" stroke="#000" stroke-width="1" fill="#fff"/>
  <text x="555" y="219" font-size="9" fill="#000" text-anchor="middle">52</text>
  <text x="577" y="212" font-size="11" fill="#000" text-anchor="start" font-weight="bold">CB-1</text>
  <text x="577" y="224" font-size="9" fill="#000" text-anchor="start">138 kV · 1200 A</text>
  <circle cx="555" cy="247" r="2.5" stroke="#000" stroke-width="1" fill="#fff"/>
  <circle cx="555" cy="231" r="2.5" stroke="#000" stroke-width="1" fill="#fff"/>
  <line x1="555" y1="231" x2="565" y2="245" stroke="#000" stroke-width="1" fill="none"/>
  <text x="577" y="243" font-size="9" fill="#000" text-anchor="start">138 kV · 1200 A</text>
  <line x1="405" y1="252" x2="705" y2="252" stroke="#000" stroke-width="2" fill="none"/>
  <text x="399" y="256" font-size="12" fill="#000" text-anchor="end" font-weight="bold">138 kV BUS</text>
  <line x1="429" y1="252" x2="429" y2="278" stroke="#000" stroke-width="1" fill="none"/>
  <line x1="417" y1="280" x2="441" y2="280" stroke="#000" stroke-width="1" fill="none"/>
  <line x1="417" y1="286" x2="441" y2="286" stroke="#000" stroke-width="1" fill="none"/>
  <text x="415" y="304" font-size="10" fill="#000" text-anchor="end">CAP-1/2</text>
  <line x1="450" y1="252" x2="450" y2="278" stroke="#000" stroke-width="1" fill="none"/>
  <rect x="441" y="279" width="18" height="18" stroke="#000" stroke-width="1" fill="#fff"/>
  <text x="450" y="291" font-size="9" fill="#000" text-anchor="middle">52</text>
  <line x1="450" y1="298" x2="450" y2="314" stroke="#000" stroke-width="1" fill="none"/>
  <line x1="450" y1="314" x2="450" y2="317" stroke="#000" stroke-width="1" fill="none"/>
  <path d="M 450 317 a 2 2 0 0 1 0 4 a 2 2 0 0 1 0 4 a 2 2 0 0 1 0 4" stroke="#000" stroke-width="1" fill="none"/>
  <line x1="447" y1="329" x2="447" y2="335" stroke="#000" stroke-width="1" fill="none"/>
  <line x1="453" y1="329" x2="453" y2="335" stroke="#000" stroke-width="1" fill="none"/>
  <path d="M 450 335 a 2 2 0 0 1 0 4 a 2 2 0 0 1 0 4 a 2 2 0 0 1 0 4" stroke="#000" stroke-width="1" fill="none"/>
  <line x1="450" y1="347" x2="450" y2="350" stroke="#000" stroke-width="1" fill="none"/>
  <line x1="437" y1="327" x2="443" y2="327" stroke="#000" stroke-width="1" fill="none"/>
  <line x1="443" y1="327" x2="440" y2="321" stroke="#000" stroke-width="1" fill="none"/>
  <line x1="440" y1="321" x2="437" y2="327" stroke="#000" stroke-width="1" fill="none"/>
  <line x1="440" y1="337" x2="440" y2="340" stroke="#000" stroke-width="1" fill="none"/>
  <line x1="440" y1="340" x2="437" y2="343" stroke="#000" stroke-width="1" fill="none"/>
  <line x1="440" y1="340" x2="443" y2="343" stroke="#000" stroke-width="1" fill="none"/>
  <line x1="450" y1="350" x2="450" y2="432" stroke="#000" stroke-width="1" fill="none"/>
  <text x="470" y="326" font-size="11" fill="#000" text-anchor="start" font-weight="bold">XFMR-1</text>
  <text x="470" y="339" font-size="10" fill="#000" text-anchor="start">75 MVA · 138/13.8 kV</text>
  <text x="470" y="351" font-size="10" fill="#000" text-anchor="start">Δ–Y · 314/3138 A</text>
  <line x1="660" y1="252" x2="660" y2="278" stroke="#000" stroke-width="1" fill="none"/>
  <rect x="651" y="279" width="18" height="18" stroke="#000" stroke-width="1" fill="#fff"/>
  <text x="660" y="291" font-size="9" fill="#000" text-anchor="middle">52</text>
  <line x1="660" y1="298" x2="660" y2="314" stroke="#000" stroke-width="1" fill="none"/>
  <line x1="660" y1="314" x2="660" y2="317" stroke="#000" stroke-width="1" fill="none"/>
  <path d="M 660 317 a 2 2 0 0 1 0 4 a 2 2 0 0 1 0 4 a 2 2 0 0 1 0 4" stroke="#000" stroke-width="1" fill="none"/>
  <line x1="657" y1="329" x2="657" y2="335" stroke="#000" stroke-width="1" fill="none"/>
  <line x1="663" y1="329" x2="663" y2="335" stroke="#000" stroke-width="1" fill="none"/>
  <path d="M 660 335 a 2 2 0 0 1 0 4 a 2 2 0 0 1 0 4 a 2 2 0 0 1 0 4" stroke="#000" stroke-width="1" fill="none"/>
  <line x1="660" y1="347" x2="660" y2="350" stroke="#000" stroke-width="1" fill="none"/>
  <line x1="647" y1="327" x2="653" y2="327" stroke="#000" stroke-width="1" fill="none"/>
  <line x1="653" y1="327" x2="650" y2="321" stroke="#000" stroke-width="1" fill="none"/>
  <line x1="650" y1="321" x2="647" y2="327" stroke="#000" stroke-width="1" fill="none"/>
  <line x1="650" y1="337" x2="650" y2="340" stroke="#000" stroke-width="1" fill="none"/>
  <line x1="650" y1="340" x2="647" y2="343" stroke="#000" stroke-width="1" fill="none"/>
  <line x1="650" y1="340" x2="653" y2="343" stroke="#000" stroke-width="1" fill="none"/>
  <line x1="660" y1="350" x2="660" y2="432" stroke="#000" stroke-width="1" fill="none"/>
  <text x="680" y="326" font-size="11" fill="#000" text-anchor="start" font-weight="bold">XFMR-2</text>
  <text x="680" y="339" font-size="10" fill="#000" text-anchor="start">75 MVA · 138/13.8 kV</text>
  <text x="680" y="351" font-size="10" fill="#000" text-anchor="start">Δ–Y · 314/3138 A</text>
  <line x1="210" y1="432" x2="900" y2="432" stroke="#000" stroke-width="2" fill="none"/>
  <text x="204" y="436" font-size="12" fill="#000" text-anchor="end" font-weight="bold">13.8 kV BUS · 3000 A</text>
  <line x1="224" y1="432" x2="224" y2="450" stroke="#000" stroke-width="1" fill="none"/>
  <line x1="217" y1="450" x2="231" y2="450" stroke="#000" stroke-width="1" fill="none"/>
  <line x1="220" y1="453" x2="228" y2="453" stroke="#000" stroke-width="1" fill="none"/>
  <line x1="222" y1="456" x2="226" y2="456" stroke="#000" stroke-width="1" fill="none"/>
  <line x1="240" y1="432" x2="240" y2="480" stroke="#000" stroke-width="1" fill="none"/>
  <circle cx="240" cy="504" r="2.5" stroke="#000" stroke-width="1" fill="#fff"/>
  <circle cx="240" cy="488" r="2.5" stroke="#000" stroke-width="1" fill="#fff"/>
  <line x1="240" y1="504" x2="250" y2="490" stroke="#000" stroke-width="1" fill="none"/>
  <line x1="240" y1="502" x2="240" y2="506" stroke="#000" stroke-width="1" fill="none"/>
  <rect x="236" y="506" width="8" height="12" stroke="#000" stroke-width="1" fill="#fff"/>
  <line x1="240" y1="518" x2="240" y2="532" stroke="#000" stroke-width="1" fill="none"/>
  <line x1="240" y1="532" x2="240" y2="535" stroke="#000" stroke-width="1" fill="none"/>
  <path d="M 240 535 a 1.6666666666666667 1.6666666666666667 0 0 1 0 3.3333333333333335 a 1.6666666666666667 1.6666666666666667 0 0 1 0 3.3333333333333335 a 1.6666666666666667 1.6666666666666667 0 0 1 0 3.3333333333333335" stroke="#000" stroke-width="1" fill="none"/>
  <line x1="237" y1="545" x2="237" y2="551" stroke="#000" stroke-width="1" fill="none"/>
  <line x1="243" y1="545" x2="243" y2="551" stroke="#000" stroke-width="1" fill="none"/>
  <path d="M 240 551 a 1.6666666666666667 1.6666666666666667 0 0 1 0 3.3333333333333335 a 1.6666666666666667 1.6666666666666667 0 0 1 0 3.3333333333333335 a 1.6666666666666667 1.6666666666666667 0 0 1 0 3.3333333333333335" stroke="#000" stroke-width="1" fill="none"/>
  <line x1="240" y1="561" x2="240" y2="564" stroke="#000" stroke-width="1" fill="none"/>
  <line x1="227" y1="543" x2="233" y2="543" stroke="#000" stroke-width="1" fill="none"/>
  <line x1="233" y1="543" x2="230" y2="537" stroke="#000" stroke-width="1" fill="none"/>
  <line x1="230" y1="537" x2="227" y2="543" stroke="#000" stroke-width="1" fill="none"/>
  <line x1="230" y1="553" x2="230" y2="556" stroke="#000" stroke-width="1" fill="none"/>
  <line x1="230" y1="556" x2="227" y2="559" stroke="#000" stroke-width="1" fill="none"/>
  <line x1="230" y1="556" x2="233" y2="559" stroke="#000" stroke-width="1" fill="none"/>
  <line x1="240" y1="564" x2="240" y2="636" stroke="#000" stroke-width="1" fill="none"/>
  <text x="260" y="486" font-size="11" fill="#000" text-anchor="start" font-weight="bold">CELL-1</text>
  <text x="260" y="546" font-size="11" fill="#000" text-anchor="start" font-weight="bold">XFMR-101</text>
  <text x="260" y="559" font-size="10" fill="#000" text-anchor="start">2.5 MVA · 13.8/0.48 kV</text>
  <line x1="450" y1="432" x2="450" y2="480" stroke="#000" stroke-width="1" fill="none"/>
  <circle cx="450" cy="504" r="2.5" stroke="#000" stroke-width="1" fill="#fff"/>
  <circle cx="450" cy="488" r="2.5" stroke="#000" stroke-width="1" fill="#fff"/>
  <line x1="450" y1="504" x2="460" y2="490" stroke="#000" stroke-width="1" fill="none"/>
  <line x1="450" y1="502" x2="450" y2="506" stroke="#000" stroke-width="1" fill="none"/>
  <rect x="446" y="506" width="8" height="12" stroke="#000" stroke-width="1" fill="#fff"/>
  <line x1="450" y1="518" x2="450" y2="532" stroke="#000" stroke-width="1" fill="none"/>
  <line x1="450" y1="532" x2="450" y2="535" stroke="#000" stroke-width="1" fill="none"/>
  <path d="M 450 535 a 1.6666666666666667 1.6666666666666667 0 0 1 0 3.3333333333333335 a 1.6666666666666667 1.6666666666666667 0 0 1 0 3.3333333333333335 a 1.6666666666666667 1.6666666666666667 0 0 1 0 3.3333333333333335" stroke="#000" stroke-width="1" fill="none"/>
  <line x1="447" y1="545" x2="447" y2="551" stroke="#000" stroke-width="1" fill="none"/>
  <line x1="453" y1="545" x2="453" y2="551" stroke="#000" stroke-width="1" fill="none"/>
  <path d="M 450 551 a 1.6666666666666667 1.6666666666666667 0 0 1 0 3.3333333333333335 a 1.6666666666666667 1.6666666666666667 0 0 1 0 3.3333333333333335 a 1.6666666666666667 1.6666666666666667 0 0 1 0 3.3333333333333335" stroke="#000" stroke-width="1" fill="none"/>
  <line x1="450" y1="561" x2="450" y2="564" stroke="#000" stroke-width="1" fill="none"/>
  <line x1="437" y1="543" x2="443" y2="543" stroke="#000" stroke-width="1" fill="none"/>
  <line x1="443" y1="543" x2="440" y2="537" stroke="#000" stroke-width="1" fill="none"/>
  <line x1="440" y1="537" x2="437" y2="543" stroke="#000" stroke-width="1" fill="none"/>
  <line x1="440" y1="553" x2="440" y2="556" stroke="#000" stroke-width="1" fill="none"/>
  <line x1="440" y1="556" x2="437" y2="559" stroke="#000" stroke-width="1" fill="none"/>
  <line x1="440" y1="556" x2="443" y2="559" stroke="#000" stroke-width="1" fill="none"/>
  <line x1="450" y1="564" x2="450" y2="636" stroke="#000" stroke-width="1" fill="none"/>
  <text x="470" y="486" font-size="11" fill="#000" text-anchor="start" font-weight="bold">CELL-2</text>
  <text x="470" y="546" font-size="11" fill="#000" text-anchor="start" font-weight="bold">XFMR-102</text>
  <text x="470" y="559" font-size="10" fill="#000" text-anchor="start">2.5 MVA · 13.8/0.48 kV</text>
  <line x1="660" y1="432" x2="660" y2="480" stroke="#000" stroke-width="1" fill="none"/>
  <circle cx="660" cy="504" r="2.5" stroke="#000" stroke-width="1" fill="#fff"/>
  <circle cx="660" cy="488" r="2.5" stroke="#000" stroke-width="1" fill="#fff"/>
  <line x1="660" y1="504" x2="670" y2="490" stroke="#000" stroke-width="1" fill="none"/>
  <line x1="660" y1="502" x2="660" y2="506" stroke="#000" stroke-width="1" fill="none"/>
  <rect x="656" y="506" width="8" height="12" stroke="#000" stroke-width="1" fill="#fff"/>
  <line x1="660" y1="518" x2="660" y2="532" stroke="#000" stroke-width="1" fill="none"/>
  <line x1="660" y1="532" x2="660" y2="535" stroke="#000" stroke-width="1" fill="none"/>
  <path d="M 660 535 a 1.6666666666666667 1.6666666666666667 0 0 1 0 3.3333333333333335 a 1.6666666666666667 1.6666666666666667 0 0 1 0 3.3333333333333335 a 1.6666666666666667 1.6666666666666667 0 0 1 0 3.3333333333333335" stroke="#000" stroke-width="1" fill="none"/>
  <line x1="657" y1="545" x2="657" y2="551" stroke="#000" stroke-width="1" fill="none"/>
  <line x1="663" y1="545" x2="663" y2="551" stroke="#000" stroke-width="1" fill="none"/>
  <path d="M 660 551 a 1.6666666666666667 1.6666666666666667 0 0 1 0 3.3333333333333335 a 1.6666666666666667 1.6666666666666667 0 0 1 0 3.3333333333333335 a 1.6666666666666667 1.6666666666666667 0 0 1 0 3.3333333333333335" stroke="#000" stroke-width="1" fill="none"/>
  <line x1="660" y1="561" x2="660" y2="564" stroke="#000" stroke-width="1" fill="none"/>
  <line x1="647" y1="543" x2="653" y2="543" stroke="#000" stroke-width="1" fill="none"/>
  <line x1="653" y1="543" x2="650" y2="537" stroke="#000" stroke-width="1" fill="none"/>
  <line x1="650" y1="537" x2="647" y2="543" stroke="#000" stroke-width="1" fill="none"/>
  <line x1="650" y1="553" x2="650" y2="556" stroke="#000" stroke-width="1" fill="none"/>
  <line x1="650" y1="556" x2="647" y2="559" stroke="#000" stroke-width="1" fill="none"/>
  <line x1="650" y1="556" x2="653" y2="559" stroke="#000" stroke-width="1" fill="none"/>
  <line x1="660" y1="564" x2="660" y2="636" stroke="#000" stroke-width="1" fill="none"/>
  <text x="680" y="486" font-size="11" fill="#000" text-anchor="start" font-weight="bold">CELL-3</text>
  <text x="680" y="546" font-size="11" fill="#000" text-anchor="start" font-weight="bold">XFMR-103</text>
  <text x="680" y="559" font-size="10" fill="#000" text-anchor="start">2.5 MVA · 13.8/0.48 kV</text>
  <line x1="870" y1="432" x2="870" y2="480" stroke="#000" stroke-width="1" fill="none"/>
  <circle cx="870" cy="504" r="2.5" stroke="#000" stroke-width="1" fill="#fff"/>
  <circle cx="870" cy="488" r="2.5" stroke="#000" stroke-width="1" fill="#fff"/>
  <line x1="870" y1="504" x2="880" y2="490" stroke="#000" stroke-width="1" fill="none"/>
  <line x1="870" y1="502" x2="870" y2="506" stroke="#000" stroke-width="1" fill="none"/>
  <rect x="866" y="506" width="8" height="12" stroke="#000" stroke-width="1" fill="#fff"/>
  <line x1="870" y1="518" x2="870" y2="532" stroke="#000" stroke-width="1" fill="none"/>
  <line x1="870" y1="532" x2="870" y2="535" stroke="#000" stroke-width="1" fill="none"/>
  <path d="M 870 535 a 1.6666666666666667 1.6666666666666667 0 0 1 0 3.3333333333333335 a 1.6666666666666667 1.6666666666666667 0 0 1 0 3.3333333333333335 a 1.6666666666666667 1.6666666666666667 0 0 1 0 3.3333333333333335" stroke="#000" stroke-width="1" fill="none"/>
  <line x1="867" y1="545" x2="867" y2="551" stroke="#000" stroke-width="1" fill="none"/>
  <line x1="873" y1="545" x2="873" y2="551" stroke="#000" stroke-width="1" fill="none"/>
  <path d="M 870 551 a 1.6666666666666667 1.6666666666666667 0 0 1 0 3.3333333333333335 a 1.6666666666666667 1.6666666666666667 0 0 1 0 3.3333333333333335 a 1.6666666666666667 1.6666666666666667 0 0 1 0 3.3333333333333335" stroke="#000" stroke-width="1" fill="none"/>
  <line x1="870" y1="561" x2="870" y2="564" stroke="#000" stroke-width="1" fill="none"/>
  <line x1="857" y1="543" x2="863" y2="543" stroke="#000" stroke-width="1" fill="none"/>
  <line x1="863" y1="543" x2="860" y2="537" stroke="#000" stroke-width="1" fill="none"/>
  <line x1="860" y1="537" x2="857" y2="543" stroke="#000" stroke-width="1" fill="none"/>
  <line x1="860" y1="553" x2="860" y2="556" stroke="#000" stroke-width="1" fill="none"/>
  <line x1="860" y1="556" x2="857" y2="559" stroke="#000" stroke-width="1" fill="none"/>
  <line x1="860" y1="556" x2="863" y2="559" stroke="#000" stroke-width="1" fill="none"/>
  <line x1="870" y1="564" x2="870" y2="636" stroke="#000" stroke-width="1" fill="none"/>
  <text x="890" y="486" font-size="11" fill="#000" text-anchor="start" font-weight="bold">CELL-4</text>
  <text x="890" y="546" font-size="11" fill="#000" text-anchor="start" font-weight="bold">XFMR-104</text>
  <text x="890" y="559" font-size="10" fill="#000" text-anchor="start">2.5 MVA · 13.8/0.48 kV</text>
  <text x="910" y="596" font-size="9" fill="#000" text-anchor="start" font-style="italic">… cells repeat to full load</text>
  <text x="246" y="452" font-size="9" fill="#000" text-anchor="start" font-style="italic">13.8 kV URD #1</text>
  <line x1="210" y1="636" x2="900" y2="636" stroke="#000" stroke-width="2" fill="none"/>
  <text x="204" y="640" font-size="11" fill="#000" text-anchor="end" font-weight="bold">480 V MDP · 3000 A</text>
  <line x1="240" y1="636" x2="240" y2="653" stroke="#000" stroke-width="1" fill="none"/>
  <rect x="223" y="653" width="34" height="22" stroke="#000" stroke-width="1" fill="#fff"/>
  <text x="262" y="662" font-size="10" fill="#000" text-anchor="start" font-weight="bold">DISC-100</text>
  <text x="262" y="674" font-size="10" fill="#000" text-anchor="start">3000 A · SE-rated</text>
  <line x1="240" y1="675" x2="240" y2="692" stroke="#000" stroke-width="1" fill="none"/>
  <rect x="213" y="692" width="54" height="30" stroke="#000" stroke-width="1" fill="#fff"/>
  <text x="240" y="711" font-size="10" fill="#000" text-anchor="middle">MDP-1</text>
  <line x1="450" y1="636" x2="450" y2="653" stroke="#000" stroke-width="1" fill="none"/>
  <rect x="433" y="653" width="34" height="22" stroke="#000" stroke-width="1" fill="#fff"/>
  <text x="472" y="662" font-size="10" fill="#000" text-anchor="start" font-weight="bold">DISC-101</text>
  <text x="472" y="674" font-size="10" fill="#000" text-anchor="start">3000 A · SE-rated</text>
  <line x1="450" y1="675" x2="450" y2="692" stroke="#000" stroke-width="1" fill="none"/>
  <rect x="423" y="692" width="54" height="30" stroke="#000" stroke-width="1" fill="#fff"/>
  <text x="450" y="711" font-size="10" fill="#000" text-anchor="middle">MDP-2</text>
  <line x1="660" y1="636" x2="660" y2="653" stroke="#000" stroke-width="1" fill="none"/>
  <rect x="643" y="653" width="34" height="22" stroke="#000" stroke-width="1" fill="#fff"/>
  <text x="682" y="662" font-size="10" fill="#000" text-anchor="start" font-weight="bold">DISC-102</text>
  <text x="682" y="674" font-size="10" fill="#000" text-anchor="start">3000 A · SE-rated</text>
  <line x1="660" y1="675" x2="660" y2="692" stroke="#000" stroke-width="1" fill="none"/>
  <rect x="633" y="692" width="54" height="30" stroke="#000" stroke-width="1" fill="#fff"/>
  <text x="660" y="711" font-size="10" fill="#000" text-anchor="middle">MDP-3</text>
  <line x1="870" y1="636" x2="870" y2="653" stroke="#000" stroke-width="1" fill="none"/>
  <rect x="853" y="653" width="34" height="22" stroke="#000" stroke-width="1" fill="#fff"/>
  <text x="892" y="662" font-size="10" fill="#000" text-anchor="start" font-weight="bold">DISC-103</text>
  <text x="892" y="674" font-size="10" fill="#000" text-anchor="start">3000 A · SE-rated</text>
  <line x1="870" y1="675" x2="870" y2="692" stroke="#000" stroke-width="1" fill="none"/>
  <rect x="843" y="692" width="54" height="30" stroke="#000" stroke-width="1" fill="#fff"/>
  <text x="870" y="711" font-size="10" fill="#000" text-anchor="middle">MDP-4</text>
  <line x1="555" y1="636" x2="555" y2="774" stroke="#000" stroke-width="1" fill="none"/>
  <circle cx="555" cy="792" r="18" stroke="#000" stroke-width="1" fill="#fff"/>
  <text x="555" y="797" font-size="14" fill="#000" text-anchor="middle" font-weight="bold">G</text>
  <text x="555" y="822" font-size="11" fill="#000" text-anchor="middle" font-weight="bold">GEN-1…N</text>
  <text x="555" y="835" font-size="10" fill="#000" text-anchor="middle">Standby diesel · N+1 (by others)</text>
  <circle cx="555" cy="252" r="2.5" stroke="#000" stroke-width="1" fill="#000"/>
  <circle cx="429" cy="252" r="2.5" stroke="#000" stroke-width="1" fill="#000"/>
  <circle cx="450" cy="252" r="2.5" stroke="#000" stroke-width="1" fill="#000"/>
  <circle cx="450" cy="432" r="2.5" stroke="#000" stroke-width="1" fill="#000"/>
  <circle cx="660" cy="252" r="2.5" stroke="#000" stroke-width="1" fill="#000"/>
  <circle cx="660" cy="432" r="2.5" stroke="#000" stroke-width="1" fill="#000"/>
  <circle cx="240" cy="432" r="2.5" stroke="#000" stroke-width="1" fill="#000"/>
  <circle cx="240" cy="636" r="2.5" stroke="#000" stroke-width="1" fill="#000"/>
  <circle cx="450" cy="432" r="2.5" stroke="#000" stroke-width="1" fill="#000"/>
  <circle cx="450" cy="636" r="2.5" stroke="#000" stroke-width="1" fill="#000"/>
  <circle cx="660" cy="432" r="2.5" stroke="#000" stroke-width="1" fill="#000"/>
  <circle cx="660" cy="636" r="2.5" stroke="#000" stroke-width="1" fill="#000"/>
  <circle cx="870" cy="432" r="2.5" stroke="#000" stroke-width="1" fill="#000"/>
  <circle cx="870" cy="636" r="2.5" stroke="#000" stroke-width="1" fill="#000"/>
  <circle cx="555" cy="636" r="2.5" stroke="#000" stroke-width="1" fill="#000"/>
  <line x1="52" y1="150" x2="1085.8" y2="150" stroke="#000" stroke-width="1.6" fill="none" stroke-dasharray="7 3"/>
  <text x="1077.8" y="144" font-size="9" fill="#000" text-anchor="end" font-style="italic">POINT OF DELIVERY (POI) — Oncor above / customer below</text>
  <text x="60" y="44" font-size="9" fill="#555" text-anchor="start" font-style="italic">BY ONCOR — utility side (above POI)</text>
  <rect x="48" y="158" width="1037.8" height="300" stroke="#000" stroke-width="1.2" fill="none" stroke-dasharray="10 6"/>
  <text x="56" y="172" font-size="10" fill="#000" text-anchor="start" font-weight="bold">MAIN SUBSTATION &amp; E-HOUSE</text>
  <rect x="48" y="466" width="1037.8" height="384" stroke="#000" stroke-width="1.2" fill="none" stroke-dasharray="10 6"/>
  <text x="56" y="480" font-size="10" fill="#000" text-anchor="start" font-weight="bold">R&amp;B POWER INC.</text>
  <rect x="1125.8" y="40" width="360" height="136" stroke="#000" stroke-width="1.5" fill="none"/>
  <text x="1135.8" y="60" font-size="12" fill="#000" text-anchor="start" font-weight="bold">GENERAL NOTES</text>
  <line x1="1125.8" y1="68" x2="1485.8" y2="68" stroke="#000" stroke-width="1" fill="none"/>
  <text x="1135.8" y="84" font-size="10" fill="#000" text-anchor="start">1. Service: single 138 kV feed; Oncor</text>
  <text x="1135.8" y="98" font-size="10" fill="#000" text-anchor="start">   revenue metering (xfmr-rated) &amp; arresters above POI.</text>
  <text x="1135.8" y="112" font-size="10" fill="#000" text-anchor="start">2. Ultimate 60 MW (~62 MVA @ 0.97 pf), data center.</text>
  <text x="1135.8" y="126" font-size="10" fill="#000" text-anchor="start">3. 2 × 75 MVA (N-1 firm 75 MVA);</text>
  <text x="1135.8" y="140" font-size="10" fill="#000" text-anchor="start">   dashed transformers = future phase.</text>
  <text x="1135.8" y="154" font-size="10" fill="#000" text-anchor="start">4. Single 138 kV feed; radial customer substation.</text>
  <text x="1135.8" y="168" font-size="10" fill="#000" text-anchor="start">5. %Z, tap range, kA, CT/PT &amp; relays — by final design.</text>
  <rect x="1125.8" y="196" width="360" height="322" stroke="#000" stroke-width="1.5" fill="none"/>
  <text x="1135.8" y="216" font-size="12" fill="#000" text-anchor="start" font-weight="bold">LEGEND</text>
  <line x1="1125.8" y1="224" x2="1485.8" y2="224" stroke="#000" stroke-width="1" fill="none"/>
  <circle cx="1151.8" cy="254" r="2.5" stroke="#000" stroke-width="1" fill="#fff"/>
  <circle cx="1151.8" cy="238" r="2.5" stroke="#000" stroke-width="1" fill="#fff"/>
  <line x1="1151.8" y1="254" x2="1161.8" y2="240" stroke="#000" stroke-width="1" fill="none"/>
  <text x="1181.8" y="250" font-size="10" fill="#000" text-anchor="start">Disconnect switch</text>
  <rect x="1142.8" y="269" width="18" height="18" stroke="#000" stroke-width="1" fill="#fff"/>
  <text x="1151.8" y="281" font-size="9" fill="#000" text-anchor="middle">52</text>
  <text x="1181.8" y="282" font-size="10" fill="#000" text-anchor="start">Circuit breaker</text>
  <line x1="1151.8" y1="299" x2="1151.8" y2="302" stroke="#000" stroke-width="1" fill="none"/>
  <path d="M 1151.8 302 a 0.8333333333333334 0.8333333333333334 0 0 1 0 1.6666666666666667 a 0.8333333333333334 0.8333333333333334 0 0 1 0 1.6666666666666667 a 0.8333333333333334 0.8333333333333334 0 0 1 0 1.6666666666666667" stroke="#000" stroke-width="1" fill="none"/>
  <line x1="1148.8" y1="307" x2="1148.8" y2="313" stroke="#000" stroke-width="1" fill="none"/>
  <line x1="1154.8" y1="307" x2="1154.8" y2="313" stroke="#000" stroke-width="1" fill="none"/>
  <path d="M 1151.8 313 a 0.8333333333333334 0.8333333333333334 0 0 1 0 1.6666666666666667 a 0.8333333333333334 0.8333333333333334 0 0 1 0 1.6666666666666667 a 0.8333333333333334 0.8333333333333334 0 0 1 0 1.6666666666666667" stroke="#000" stroke-width="1" fill="none"/>
  <line x1="1151.8" y1="318" x2="1151.8" y2="321" stroke="#000" stroke-width="1" fill="none"/>
  <line x1="1138.8" y1="305" x2="1144.8" y2="305" stroke="#000" stroke-width="1" fill="none"/>
  <line x1="1144.8" y1="305" x2="1141.8" y2="299" stroke="#000" stroke-width="1" fill="none"/>
  <line x1="1141.8" y1="299" x2="1138.8" y2="305" stroke="#000" stroke-width="1" fill="none"/>
  <line x1="1141.8" y1="315" x2="1141.8" y2="318" stroke="#000" stroke-width="1" fill="none"/>
  <line x1="1141.8" y1="318" x2="1138.8" y2="321" stroke="#000" stroke-width="1" fill="none"/>
  <line x1="1141.8" y1="318" x2="1144.8" y2="321" stroke="#000" stroke-width="1" fill="none"/>
  <text x="1181.8" y="314" font-size="10" fill="#000" text-anchor="start">Power transformer (Δ–Y)</text>
  <rect x="1147.8" y="336" width="8" height="12" stroke="#000" stroke-width="1" fill="#fff"/>
  <text x="1181.8" y="346" font-size="10" fill="#000" text-anchor="start">Fuse</text>
  <line x1="1139.8" y1="371" x2="1163.8" y2="371" stroke="#000" stroke-width="1" fill="none"/>
  <line x1="1139.8" y1="377" x2="1163.8" y2="377" stroke="#000" stroke-width="1" fill="none"/>
  <text x="1181.8" y="378" font-size="10" fill="#000" text-anchor="start">Capacitor bank</text>
  <circle cx="1151.8" cy="406" r="9" stroke="#000" stroke-width="1" fill="#fff"/>
  <text x="1151.8" y="411" font-size="14" fill="#000" text-anchor="middle" font-weight="bold">G</text>
  <text x="1181.8" y="410" font-size="10" fill="#000" text-anchor="start">Generator</text>
  <rect x="1146.8" y="430" width="10" height="16" stroke="#000" stroke-width="1" fill="#fff"/>
  <line x1="1148.8" y1="433" x2="1154.8" y2="443" stroke="#000" stroke-width="1" fill="none"/>
  <line x1="1144.8" y1="449" x2="1158.8" y2="449" stroke="#000" stroke-width="1" fill="none"/>
  <line x1="1147.8" y1="452" x2="1155.8" y2="452" stroke="#000" stroke-width="1" fill="none"/>
  <line x1="1149.8" y1="455" x2="1153.8" y2="455" stroke="#000" stroke-width="1" fill="none"/>
  <text x="1181.8" y="442" font-size="10" fill="#000" text-anchor="start">Surge arrester</text>
  <circle cx="1151.8" cy="470" r="9" stroke="#000" stroke-width="1" fill="#fff"/>
  <text x="1151.8" y="474" font-size="11" fill="#000" text-anchor="middle" font-weight="bold">M</text>
  <text x="1181.8" y="474" font-size="10" fill="#000" text-anchor="start">Revenue meter</text>
  <circle cx="1151.8" cy="502" r="2.5" stroke="#000" stroke-width="1" fill="#000"/>
  <text x="1181.8" y="506" font-size="10" fill="#000" text-anchor="start">Connection (junction)</text>
  <text x="60" y="1034" font-size="12" fill="#000" text-anchor="start" font-weight="bold">TOTAL CONNECTED LOAD: 60 MW (~62 MVA @ 0.97 pf) · data center</text>
  <text x="60" y="1052" font-size="10" fill="#000" text-anchor="start">Service: 138 kV feed · 795 kcmil ACSR · 2 × 75 MVA (N-1 firm 75) · per-feed 259 A</text>
  <rect x="1005.8" y="916" width="480" height="28" stroke="#000" stroke-width="1" fill="none"/>
  <text x="1013.8" y="934" font-size="10" fill="#000" text-anchor="start">REV 1  ·  Issued for Interconnection Study  ·  RBP  ·  2026-06-08</text>
  <rect x="1005.8" y="946" width="480" height="104" stroke="#000" stroke-width="1.5" fill="none"/>
  <line x1="1005.8" y1="972" x2="1485.8" y2="972" stroke="#000" stroke-width="1" fill="none"/>
  <line x1="1285.8" y1="972" x2="1285.8" y2="1050" stroke="#000" stroke-width="1" fill="none"/>
  <text x="1245.8" y="964" font-size="13" fill="#000" text-anchor="middle" font-weight="bold">ELECTRICAL ONE-LINE DIAGRAM</text>
  <text x="1015.8" y="992" font-size="11" fill="#000" text-anchor="start" font-weight="bold">Single-Feed Test — 60 MW</text>
  <text x="1015.8" y="1010" font-size="10" fill="#000" text-anchor="start">TX</text>
  <text x="1015.8" y="1028" font-size="9" fill="#000" text-anchor="start"></text>
  <text x="1015.8" y="1042" font-size="9" fill="#000" text-anchor="start">Customer: NTNSM, LLC</text>
  <text x="1295.8" y="992" font-size="11" fill="#000" text-anchor="start" font-weight="bold">R&amp;B Power Inc.</text>
  <text x="1295.8" y="1010" font-size="10" fill="#000" text-anchor="start" font-weight="bold">Dwg RB-SF-E-001 · Rev 1</text>
  <text x="1295.8" y="1028" font-size="9" fill="#000" text-anchor="start">Scale: AS SHOWN · Sheet 1 of 1</text>
  <text x="1295.8" y="1042" font-size="9" fill="#000" text-anchor="start" font-style="italic">Study-stage · not for construction</text>
</svg>